<svg width="41" height="40" viewBox="0 0 41 40" fill="none" xmlns="http://www.w3.org/2000/svg">
<path d="M13 30C13.663 30 14.2989 30.2634 14.7678 30.7322C15.2366 31.2011 15.5 31.837 15.5 32.5C15.5 33.163 15.2366 33.7989 14.7678 34.2678C14.2989 34.7366 13.663 35 13 35C12.337 35 11.7011 34.7366 11.2322 34.2678C10.7634 33.7989 10.5 33.163 10.5 32.5C10.5 31.837 10.7634 31.2011 11.2322 30.7322C11.7011 30.2634 12.337 30 13 30ZM28 30C28.663 30 29.2989 30.2634 29.7678 30.7322C30.2366 31.2011 30.5 31.837 30.5 32.5C30.5 33.163 30.2366 33.7989 29.7678 34.2678C29.2989 34.7366 28.663 35 28 35C27.337 35 26.7011 34.7366 26.2322 34.2678C25.7634 33.7989 25.5 33.163 25.5 32.5C25.5 31.837 25.7634 31.2011 26.2322 30.7322C26.7011 30.2634 27.337 30 28 30Z" stroke="#EAE0D5" stroke-width="1.5"/>
<path d="M18.8333 15H13.8333M3.83334 5L4.27501 5.14667C6.47501 5.88 7.57501 6.24667 8.20335 7.12C8.83335 7.99333 8.83335 9.15333 8.83335 11.4717V15.8333C8.83335 20.5467 8.83335 22.905 10.2983 24.3683C11.7617 25.8333 14.12 25.8333 18.8333 25.8333H22.1667M32.1667 25.8333H28.8334" stroke="#EAE0D5" stroke-width="1.5" stroke-linecap="round"/>
<path d="M8.83334 10H13.8333M9.66668 21.6667H27.2033C28.8033 21.6667 29.6017 21.6667 30.2283 21.2533C30.8533 20.84 31.1683 20.1067 31.7983 18.6367L32.5133 16.97C33.8633 13.82 34.5367 12.2483 33.7967 11.1233C33.055 10 31.3417 10 27.9167 10H20.5" stroke="#EAE0D5" stroke-width="1.5" stroke-linecap="round"/>
</svg>
